<svg xmlns="http://www.w3.org/2000/svg" width="20" height="20" viewBox="0 0 20 20">
  <g id="Group_527" data-name="Group 527" transform="translate(-1 -1)">
    <path id="Path_2644" data-name="Path 2644" d="M15.474,8.249a1,1,0,0,1-.055,1.238l-5.8,6.208A.86.86,0,0,1,8.3,15.6L5.929,13.182A1,1,0,0,1,5.862,11.9a.726.726,0,0,1,1.119-.077l2.111,2.042,5.282-5.693A.723.723,0,0,1,15.474,8.249Z" transform="translate(0.337 -0.957)" fill="#add172" fill-rule="evenodd"/>
    <path id="Path_2645" data-name="Path 2645" d="M11,2.818A8.182,8.182,0,1,0,19.182,11,8.182,8.182,0,0,0,11,2.818ZM1,11A10,10,0,1,1,11,21,10,10,0,0,1,1,11Z" fill="#add172" fill-rule="evenodd"/>
  </g>
</svg>
